<?xml version="1.0" encoding="UTF-8" standalone="no"?>
<!-- Created with Inkscape (http://www.inkscape.org/) -->

<svg
   version="1.1"
   id="svg1"
   width="950"
   height="842.94684"
   viewBox="0 0 950.00001 842.94683"
   sodipodi:docname="Mazda_(2025).svg"
   xml:space="preserve"
   inkscape:version="1.3 (0e150ed6c4, 2023-07-21)"
   xmlns:inkscape="http://www.inkscape.org/namespaces/inkscape"
   xmlns:sodipodi="http://sodipodi.sourceforge.net/DTD/sodipodi-0.dtd"
   xmlns="http://www.w3.org/2000/svg"
   xmlns:svg="http://www.w3.org/2000/svg"><defs
     id="defs1" /><sodipodi:namedview
     id="namedview1"
     pagecolor="#ffffff"
     bordercolor="#000000"
     borderopacity="0.25"
     inkscape:showpageshadow="2"
     inkscape:pageopacity="0.0"
     inkscape:pagecheckerboard="0"
     inkscape:deskcolor="#d1d1d1"
     inkscape:zoom="0.64878362"
     inkscape:cx="423.09946"
     inkscape:cy="554.11386"
     inkscape:window-width="1920"
     inkscape:window-height="1009"
     inkscape:window-x="-8"
     inkscape:window-y="-8"
     inkscape:window-maximized="1"
     inkscape:current-layer="svg1" /><path
     id="path1"
     style="fill:#000000;stroke-width:14.5899;paint-order:stroke fill markers"
     d="M 475.3778,-1.142e-7 C 401.97604,-1.142e-7 339.75019,11.50826 283.21267,37.263334 246.53243,53.97281 211.6543,77.364635 180.60282,110.46307 c -16.19086,17.25799 -33.69628,42.24844 -44.28413,64.71322 -23.83479,50.57139 -26.38531,90.79109 -26.38531,122.20056 0,17.84083 0.12232,34.39479 4.84641,59.38129 3.63447,19.22335 9.91237,40.10321 20.67034,62.82225 36.86376,77.85052 105.00351,120.12418 147.00256,139.10718 56.96485,25.74727 118.25604,37.62223 192.92511,37.62223 74.66898,0 135.65356,-11.60412 192.4952,-37.62223 35.36942,-16.18954 108.05003,-57.69569 146.62259,-139.10718 25.09714,-52.9699 25.57103,-100.36602 25.57103,-122.20354 0,-33.11852 -2.95742,-73.09412 -26.5481,-122.20056 C 777.97625,101.19156 715.82116,59.909231 667.43876,37.751924 611.65919,12.206921 548.7795,-1.1419988e-7 475.3778,-1.142e-7 Z m 0,32.1515561142 c 62.30452,0 115.97916,11.016888 164.04413,35.07388 42.02317,21.032864 75.73803,49.352184 97.27789,81.836924 0,0 -66.74379,33.48451 -100.18812,50.14687 -18.57843,9.256 -78.12687,39.52816 -88.2004,48.7807 -12.10861,11.12197 -25.34685,30.21911 -33.98517,42.58623 -13.18067,18.8703 -26.49122,38.96593 -39.308,58.21719 -12.89826,-19.0885 -26.2179,-39.34689 -39.39854,-58.21719 -8.63826,-12.36712 -21.00358,-30.68815 -34.00325,-42.62841 -5.82581,-5.35105 -37.80646,-23.80221 -87.62131,-48.62997 L 213.09514,149.02921 C 237.44271,113.85878 268.88067,88.258353 310.90383,67.225436 358.96884,43.168498 413.07326,32.151556 475.3778,32.151556 Z M 769.83449,222.42795 c 8.27602,20.08373 11.85521,48.00826 11.85521,74.9489 0,49.68765 -9.64098,87.68948 -28.98498,124.04321 -8.2266,15.46053 -20.89026,34.52199 -37.96001,52.32425 -19.13456,19.9558 -44.10858,39.72885 -74.64429,54.98424 -48.27825,24.11938 -100.77906,35.43274 -164.72262,35.43274 -63.94362,0 -117.09557,-11.36079 -165.23396,-35.27289 -59.12022,-29.36739 -94.21233,-72.54799 -113.00233,-107.79406 -18.04159,-33.84236 -28.9397,-71.52791 -28.9397,-123.71749 0,-26.94064 3.87753,-55.0008 11.77372,-74.92177 42.83018,18.12162 85.21032,36.44417 127.34552,55.87091 50.81144,23.42682 82.93895,40.39537 89.44587,46.19611 10.64585,9.49047 27.27411,31.99575 32.29631,38.84969 13.74001,18.75128 27.15272,37.35802 40.65306,56.25383 h 10.43473 c 13.5004,-18.89581 27.13701,-37.73348 40.78581,-56.25383 5.44019,-7.38197 20.97619,-28.64502 30.92107,-37.51063 8.05068,-7.17703 36.02193,-22.41183 90.9839,-47.75234 42.1353,-19.42662 84.16246,-37.55925 126.99269,-55.68087 z"
     sodipodi:nodetypes="ssssssssssssssssscssscssscsscsssssssscsssccsssc" /><path
     id="text6"
     style="font-weight:bold;font-size:79.0314px;line-height:0;font-family:'Mazda Type';-inkscape-font-specification:'Mazda Type Bold';letter-spacing:16px;word-spacing:0px;fill:#000000;fill-opacity:1;stroke-width:7.38322;stroke-linecap:square"
     d="M 315.7207 698.75195 L 292.49609 701.49609 L 231.90625 842.94727 L 251.75 842.94727 L 272.01758 793.12305 L 322.6875 793.12305 L 341.89844 842.94727 L 373.77734 842.94727 L 315.7207 698.75195 z M 891.94141 698.75195 L 868.71875 701.49609 L 808.12695 842.94727 L 827.97266 842.94727 L 848.24023 793.12305 L 898.9082 793.12305 L 918.12109 842.94727 L 950 842.94727 L 891.94141 698.75195 z M 15.412109 699.38477 L 0 842.94727 L 18.789062 842.94727 L 27.867188 733.375 L 28.712891 733.375 L 78.115234 834.29102 L 88.037109 834.29102 L 137.65039 732.95312 L 138.49414 732.95312 L 149.05078 842.94727 L 178.39648 842.94727 L 163.19531 699.38477 L 135.32812 699.38477 L 89.9375 793.9668 L 89.304688 793.9668 L 43.068359 699.38477 L 15.412109 699.38477 z M 438.06836 699.38477 L 434.26758 715.21875 L 508.79297 715.21875 L 508.79297 716.48633 L 427.08984 835.3457 L 427.08984 842.94727 L 550.38281 842.94727 L 560.30664 824.58008 L 559.03906 824.58008 C 544.68289 826.48015 529.27221 826.69141 467.41406 826.69141 L 467.41406 825.42383 L 549.75 706.14062 L 549.75 699.38477 L 438.06836 699.38477 z M 624.63867 699.38477 L 624.63867 842.94727 L 678.26172 842.94727 C 727.03045 842.94727 759.12109 816.97888 759.12109 771.37695 C 759.12109 723.45274 730.62065 699.38477 681.42969 699.38477 L 624.63867 699.38477 z M 653.13867 715.00781 L 676.15039 715.00781 C 712.2519 715.00781 728.29883 735.27544 728.29883 771.37695 C 728.29883 806.21174 710.9861 827.11328 675.0957 827.11328 L 653.13867 827.11328 L 653.13867 715.00781 z M 297.98633 727.67578 L 299.04102 727.67578 L 317.83203 777.71094 L 277.92969 777.71094 L 297.98633 727.67578 z M 874.20703 727.67578 L 875.26367 727.67578 L 894.05273 777.71094 L 854.15234 777.71094 L 874.20703 727.67578 z " /></svg>
